<?xml version="1.0" encoding="UTF-8"?>
<svg id="Layer_1" xmlns="http://www.w3.org/2000/svg" version="1.1" viewBox="0 0 1119 1140">
  <!-- Generator: Adobe Illustrator 29.4.0, SVG Export Plug-In . SVG Version: 2.1.0 Build 152)  -->
  <defs>
    <style>
      .st0 {
        fill: #507dbc;
      }
    </style>
  </defs>
  <path class="st0" d="M559.6,10.5C251,10.5,0,261.5,0,569.9s251,559.6,559.6,559.6,559.4-251,559.4-559.6S868,10.5,559.6,10.5ZM559.6,1081.4c-282,0-511.5-229.5-511.5-511.5S277.6,58.6,559.6,58.6s511.3,229.4,511.3,511.3-229.4,511.5-511.3,511.5Z"/>
  <g>
    <path class="st0" d="M758.6,472.5c35.3,0,64.1-28.7,64.1-64s-28.7-64-64.1-64-64,28.7-64,64,28.7,64,64,64Z"/>
    <path class="st0" d="M758.6,324.4c8.5,0,15.4-6.9,15.4-15.4v-25.5c0-8.5-6.9-15.4-15.4-15.4s-15.4,6.9-15.4,15.4v25.5c0,8.5,6.9,15.4,15.4,15.4Z"/>
    <path class="st0" d="M677.3,349c3,3,7,4.5,10.9,4.5s7.9-1.5,10.9-4.5c6-6,6-15.8,0-21.8l-18.1-18.1c-6-6-15.8-6-21.8,0-6,6-6,15.8,0,21.8l18.1,18.1h0Z"/>
    <path class="st0" d="M633.6,423.9h25.5c8.5,0,15.4-6.9,15.4-15.4s-6.9-15.4-15.4-15.4h-25.5c-8.5,0-15.4,7-15.4,15.4s6.9,15.4,15.4,15.4Z"/>
    <path class="st0" d="M677.3,468l-18.1,18.1c-6,6-6,15.8,0,21.8,3,3,7,4.5,10.9,4.5s7.9-1.5,10.9-4.5l18.1-18c6-6,6.1-15.8,0-21.8-6-6.1-15.8-6.1-21.8,0h0Z"/>
    <path class="st0" d="M743.2,508.1v25.5c0,8.5,6.9,15.4,15.4,15.4s15.4-7,15.4-15.4v-25.5c0-8.5-6.9-15.4-15.4-15.4s-15.4,6.9-15.4,15.4h0Z"/>
    <path class="st0" d="M839.8,468c-6-6-15.8-6-21.8,0-6,6-6,15.8,0,21.8l18.1,18c3,3,7,4.5,10.9,4.5s7.9-1.5,10.9-4.5c6-6,6-15.8,0-21.8l-18.1-18.1h0Z"/>
    <path class="st0" d="M842.7,408.5c0,8.5,6.9,15.4,15.4,15.4h25.5c8.5,0,15.4-6.9,15.4-15.4s-6.9-15.4-15.4-15.4h-25.5c-8.5,0-15.4,7-15.4,15.4Z"/>
    <path class="st0" d="M828.9,353.6c3.9,0,8-1.5,10.9-4.5l18.1-18.1c6-6,6-15.8,0-21.8s-15.8-6-21.8,0l-18.1,18.1c-6,6-6,15.8,0,21.8,3,3,7,4.5,10.9,4.5h0Z"/>
    <path class="st0" d="M239.1,470.4c.2.9.4,1.6.4,1.6,1.8,5.3,6.8,8.7,12.5,8.7h.2c5.5-.4,10.3-4.4,11.6-9.2,3.7-13,12.8-23.1,25-27.2,13.2-4.8,28.3-2,38.9,7.3,3.3,2.8,8.1,3.7,12.5,2.2,4.1-1.6,7.5-5,8.3-9.6,2.7-13.8,12.3-25.4,25.4-30,9.2-3.3,19.3-3,28.6.9l54.2,152.7c-84,11.2-168.3,36-189.8,73,4.4-1.3,8.7-1.8,13.2-1.8h.2c16.2,0,31.4,7.3,41.9,19.5,5.3,6.4,16,16.9,27.9,16.9s22.4-10.5,27.7-16.9c20.8-24.8,63.2-24.8,84,0,5.3,6.4,16,16.9,27.9,16.9s22.6-10.5,27.9-16.9c20.8-24.8,63.2-24.8,84,0,5.3,6.4,16,16.9,27.9,16.9s22.4-10.5,27.7-16.9c20.8-24.8,63.2-24.8,84,0,5.3,6.4,16,16.9,27.9,16.9s21.3-9.2,28.1-17.1c10.3-12.3,25.7-19.3,41.7-19.3h.7c-32.9-50.9-184-78.3-285.6-78.3s-38.4,1.1-58.8,2.8l-57.2-160.9c4.8-8.7,12.5-15.8,21.7-18.8,13.2-4.8,27.7-2,38.9,7.3,3.5,2.8,8.1,3.5,12.1,2.2,4.1-.9,7.5-4.4,8.5-9.6,2.7-13.8,12.5-25.4,25.4-30,12.1-4.4,25.4-2.5,36.9,5.3,4.4,3,10.5,2.8,14.7-.4,4.4-2.8,6.2-9,4.1-14.4-.2-.7-.7-1.8-1.6-3.7-30.2-71.1-118.5-103.8-210.8-78.7l-2.5-6.6c-3.3-9.4-14-14.2-23.7-11-4.6,1.6-8.3,5-10.5,9.4-2.2,4.6-2.7,9.4-.9,14.2l2.2,6.4c-87.4,38.9-135,120.4-113.5,195.5l.2,1.1v-.2Z"/>
    <path class="st0" d="M908.6,714.9c-24.7,0-43.4-16-54.7-29.4-3.7-4.4-9.2-7.1-15.1-7.1h0c-5.8,0-11.3,2.6-15,7-11.4,13.4-30.1,29.5-54.8,29.5s-43.4-16-54.7-29.4c-7.6-8.9-22.8-8.9-30.2,0-11.3,13.4-29.9,29.4-54.7,29.4s-43.4-16-54.7-29.4c-7.6-8.9-22.8-8.9-30.2,0-11.3,13.4-29.9,29.4-54.7,29.4s-43.4-16-54.7-29.4c-7.6-8.9-22.8-8.9-30.2,0-11.3,13.4-29.9,29.4-54.7,29.4s-43.4-16-54.7-29.4c-3.7-4.4-9.2-7.1-15.1-7.1-6.5-.3-11.4,2.6-15.1,7-11.4,13.4-30.1,29.5-54.8,29.5s-19.7,8.8-19.7,19.7,8.8,19.7,19.7,19.7c25.1,0,49-9.6,69.8-28.1,41.5,36.4,98.2,36.4,139.7,0,41.5,36.4,98.2,36.4,139.7,0,41.5,36.4,98.2,36.3,139.7,0,41.7,36.5,98.2,36.6,139.7,0,20.7,18.2,45,28.1,69.8,28.1s19.7-8.8,19.7-19.7-8.8-19.7-19.7-19.7h-.3Z"/>
    <path class="st0" d="M908.6,809.8c-24.7,0-43.4-16-54.7-29.4-3.7-4.4-9.2-7.1-15.1-7.1h0c-5.8,0-11.3,2.6-15,7-11.4,13.4-30.1,29.5-54.8,29.5s-43.4-16-54.7-29.4c-7.6-8.9-22.8-8.9-30.2,0-11.3,13.4-29.9,29.4-54.7,29.4s-43.4-16-54.7-29.4c-7.6-8.9-22.8-8.9-30.2,0-11.3,13.4-29.9,29.4-54.7,29.4s-43.4-16-54.7-29.4c-7.6-8.9-22.8-8.9-30.2,0-11.3,13.4-29.9,29.4-54.7,29.4s-43.4-16-54.7-29.4c-3.7-4.4-9.2-7.1-15.1-7.1-6.5-.3-11.4,2.6-15.1,7-11.4,13.4-30.1,29.5-54.8,29.5s-19.7,8.8-19.7,19.7,8.8,19.7,19.7,19.7c25.1,0,49-9.6,69.8-28.1,41.5,36.4,98.2,36.4,139.7,0,41.5,36.4,98.2,36.4,139.7,0,41.5,36.4,98.2,36.3,139.7,0,41.7,36.5,98.2,36.6,139.7,0,20.7,18.2,45,28.1,69.8,28.1s19.7-8.8,19.7-19.7-8.8-19.7-19.7-19.7h-.3Z"/>
  </g>
</svg>