<?xml version="1.0" encoding="UTF-8"?>
<svg id="Layer_1" xmlns="http://www.w3.org/2000/svg" version="1.1" viewBox="0 0 1119 1140">
  <!-- Generator: Adobe Illustrator 29.4.0, SVG Export Plug-In . SVG Version: 2.1.0 Build 152)  -->
  <defs>
    <style>
      .st0 {
        fill: #353f45;
      }
    </style>
  </defs>
  <path class="st0" d="M549.1,0C234.7,0-21,255.7-21,569.9s255.7,570.1,570.1,570.1,569.9-255.7,569.9-570.1S863.3,0,549.1,0ZM549.1,1091c-287.3,0-521.1-233.8-521.1-521.1S261.8,49,549.1,49s520.9,233.7,520.9,520.9-233.7,521.1-520.9,521.1Z"/>
  <g>
    <path class="st0" d="M751.8,470.7c36,0,65.3-29.2,65.3-65.2s-29.2-65.2-65.3-65.2-65.2,29.2-65.2,65.2,29.2,65.2,65.2,65.2Z"/>
    <path class="st0" d="M751.8,319.8c8.7,0,15.7-7,15.7-15.7v-26c0-8.7-7-15.7-15.7-15.7s-15.7,7-15.7,15.7v26c0,8.7,7,15.7,15.7,15.7Z"/>
    <path class="st0" d="M669,344.9c3.1,3.1,7.1,4.6,11.1,4.6s8-1.5,11.1-4.6c6.1-6.1,6.1-16.1,0-22.2l-18.4-18.4c-6.1-6.1-16.1-6.1-22.2,0-6.1,6.1-6.1,16.1,0,22.2l18.4,18.4Z"/>
    <path class="st0" d="M624.5,421.2h26c8.7,0,15.7-7,15.7-15.7s-7-15.7-15.7-15.7h-26c-8.7,0-15.7,7.1-15.7,15.7s7,15.7,15.7,15.7Z"/>
    <path class="st0" d="M669,466.1l-18.4,18.4c-6.1,6.1-6.1,16.1,0,22.2,3.1,3.1,7.1,4.6,11.1,4.6s8-1.5,11.1-4.6l18.4-18.3c6.1-6.1,6.2-16.1,0-22.2-6.1-6.2-16.1-6.2-22.2,0Z"/>
    <path class="st0" d="M736.1,506.9v26c0,8.7,7,15.7,15.7,15.7s15.7-7.1,15.7-15.7v-26c0-8.7-7-15.7-15.7-15.7s-15.7,7-15.7,15.7Z"/>
    <path class="st0" d="M834.6,466.1c-6.1-6.1-16.1-6.1-22.2,0-6.1,6.1-6.1,16.1,0,22.2l18.4,18.3c3.1,3.1,7.1,4.6,11.1,4.6s8-1.5,11.1-4.6c6.1-6.1,6.1-16.1,0-22.2l-18.4-18.4Z"/>
    <path class="st0" d="M837.5,405.5c0,8.7,7,15.7,15.7,15.7h26c8.7,0,15.7-7,15.7-15.7s-7-15.7-15.7-15.7h-26c-8.7,0-15.7,7.1-15.7,15.7Z"/>
    <path class="st0" d="M823.5,349.5c4,0,8.1-1.5,11.1-4.6l18.4-18.4c6.1-6.1,6.1-16.1,0-22.2-6.1-6.1-16.1-6.1-22.2,0l-18.4,18.4c-6.1,6.1-6.1,16.1,0,22.2,3.1,3.1,7.1,4.6,11.1,4.6Z"/>
    <path class="st0" d="M222.6,468.5c.2.9.4,1.6.4,1.6,1.8,5.4,6.9,8.9,12.7,8.9h.2c5.6-.4,10.5-4.5,11.8-9.4,3.8-13.2,13-23.5,25.5-27.7,13.4-4.9,28.8-2,39.6,7.4,3.4,2.9,8.3,3.8,12.7,2.2,4.2-1.6,7.6-5.1,8.5-9.8,2.7-14.1,12.5-25.9,25.9-30.6,9.4-3.4,19.7-3.1,29.1.9l55.2,155.6c-85.6,11.4-171.5,36.7-193.4,74.4,4.5-1.3,8.9-1.8,13.4-1.8h.2c16.5,0,32,7.4,42.7,19.9,5.4,6.5,16.3,17.2,28.4,17.2s22.8-10.7,28.2-17.2c21.2-25.3,64.4-25.3,85.6,0,5.4,6.5,16.3,17.2,28.4,17.2s23-10.7,28.4-17.2c21.2-25.3,64.4-25.3,85.6,0,5.4,6.5,16.3,17.2,28.4,17.2s22.8-10.7,28.2-17.2c21.2-25.3,64.4-25.3,85.6,0,5.4,6.5,16.3,17.2,28.4,17.2s21.7-9.4,28.6-17.4c10.5-12.5,26.2-19.7,42.5-19.7h.7c-33.5-51.9-187.5-79.8-291-79.8s-39.1,1.1-59.9,2.9l-58.3-163.9c4.9-8.9,12.7-16.1,22.1-19.2,13.4-4.9,28.2-2,39.6,7.4,3.6,2.9,8.3,3.6,12.3,2.2,4.2-.9,7.6-4.5,8.7-9.8,2.7-14.1,12.7-25.9,25.9-30.6,12.3-4.5,25.9-2.5,37.6,5.4,4.5,3.1,10.7,2.9,15-.4,4.5-2.9,6.3-9.2,4.2-14.7-.2-.7-.7-1.8-1.6-3.8-30.8-72.4-120.7-105.7-214.8-80.2l-2.5-6.7c-3.4-9.6-14.3-14.5-24.1-11.2-4.7,1.6-8.5,5.1-10.7,9.6-2.2,4.7-2.7,9.6-.9,14.5l2.2,6.5c-89,39.6-137.5,122.7-115.6,199.2l.2,1.1Z"/>
    <path class="st0" d="M904.7,717.6c-25.2,0-44.2-16.3-55.7-30-3.8-4.5-9.4-7.2-15.4-7.2h0c-5.9,0-11.5,2.6-15.3,7.1-11.6,13.7-30.7,30.1-55.8,30.1s-44.2-16.3-55.7-30c-7.7-9.1-23.2-9.1-30.8,0-11.5,13.7-30.5,30-55.7,30s-44.2-16.3-55.7-30c-7.7-9.1-23.2-9.1-30.8,0-11.5,13.7-30.5,30-55.7,30s-44.2-16.3-55.7-30c-7.7-9.1-23.2-9.1-30.8,0-11.5,13.7-30.5,30-55.7,30s-44.2-16.3-55.7-30c-3.8-4.5-9.4-7.2-15.4-7.2-6.6-.3-11.6,2.6-15.4,7.1-11.6,13.7-30.7,30.1-55.8,30.1s-20.1,9-20.1,20.1,9,20.1,20.1,20.1c25.6,0,49.9-9.8,71.1-28.6,42.3,37.1,100,37.1,142.3,0,42.3,37.1,100,37.1,142.3,0,42.3,37.1,100,37,142.3,0,42.5,37.2,100,37.3,142.3,0,21.1,18.5,45.8,28.6,71.1,28.6s20.1-9,20.1-20.1-9-20.1-20.1-20.1Z"/>
    <path class="st0" d="M904.7,814.3c-25.2,0-44.2-16.3-55.7-30-3.8-4.5-9.4-7.2-15.4-7.2h0c-5.9,0-11.5,2.6-15.3,7.1-11.6,13.7-30.7,30.1-55.8,30.1s-44.2-16.3-55.7-30c-7.7-9.1-23.2-9.1-30.8,0-11.5,13.7-30.5,30-55.7,30s-44.2-16.3-55.7-30c-7.7-9.1-23.2-9.1-30.8,0-11.5,13.7-30.5,30-55.7,30s-44.2-16.3-55.7-30c-7.7-9.1-23.2-9.1-30.8,0-11.5,13.7-30.5,30-55.7,30s-44.2-16.3-55.7-30c-3.8-4.5-9.4-7.2-15.4-7.2-6.6-.3-11.6,2.6-15.4,7.1-11.6,13.7-30.7,30.1-55.8,30.1s-20.1,9-20.1,20.1,9,20.1,20.1,20.1c25.6,0,49.9-9.8,71.1-28.6,42.3,37.1,100,37.1,142.3,0,42.3,37.1,100,37.1,142.3,0,42.3,37.1,100,37,142.3,0,42.5,37.2,100,37.3,142.3,0,21.1,18.5,45.8,28.6,71.1,28.6s20.1-9,20.1-20.1-9-20.1-20.1-20.1Z"/>
  </g>
</svg>